PathFileType	4	(X/Y/Z)	C:/Users/beibeiliu/ov580/test_trc/User2\sequence.5_training_dense_right.trc
DataRate	CameraRate	NumFrames	NumMarkers	Units	OrigDataRate	OrigDataStartFrame	OrigNumFrames
120	120	14	19	mm	120	37	72
Frame#	Time	ThumbCMC			ThumbMCP			ThumbIP			ThumbTip			IndexMCP			IndexPIP			IndexTip			MiddleMCP			MiddlePIP			MiddleTip			RingMCP			RingPIP			RingTip			PinkyMCP			PinkyPIP			PinkyTip			BackHand1			BackHand2			BackHand3	
		X0	Y0	Z0	X1	Y1	Z1	X2	Y2	Z2	X3	Y3	Z3	X4	Y4	Z4	X5	Y5	Z5	X6	Y6	Z6	X7	Y7	Z7	X8	Y8	Z8	X9	Y9	Z9	X10	Y10	Z10	X11	Y11	Z11	X12	Y12	Z12	X13	Y13	Z13	X14	Y14	Z14	X15	Y15	Z15	X16	Y16	Z16	X17	Y17	Z17	X18	Y18	Z18	
36	0.3	83.0667	0.2322	-12.4948	67.6323	-17.0265	-40.7412	63.8063	-26.1407	-79.439	76.1281	-32.8799	-101.4	89.7554	34.7932	-87.5681	79.1364	29.8551	-113.096	76.8932	17.8127	-137.856	106.173	21.9801	-99.0062	98.5377	-8.65747	-114.146	89.2668	-36.9386	-84.1378	125.841	-0.647547	-95.6592	110.637	-31.0088	-96.0463	105.547	-36.8699	-61.0465	143.493	-14.2844	-85.5832	121.381	-43.2791	-79.4274	114.818	-39.4207	-52.1202	143.914	20.8563	-36.6287	148.627	17.8842	-5.50517	115.747	28.7962	-11.8356	
37	0.308333	84.3351	-5.79111	-10.2128	67.0693	-23.571	-41.8848	66.1203	-34.481	-80.6348	81.7488	-40.4422	-102.276	89.5585	32.4528	-85.7461	83.9352	31.9303	-113.129	74.3516	27.8219	-140.794	110.111	16.6137	-100.167	103.468	-16.222	-114.739	96.9761	-42.7148	-83.8639	128.808	-4.17422	-96.3726	114.055	-36.0917	-95.8843	106.614	-42.1304	-63.4512	145.454	-19.3805	-86.1457	125.393	-46.5144	-78.0966	117.966	-40.1004	-47.3525	145.703	20.3427	-35.8264	151.522	16.941	-6.02488	113.544	27.5492	-18.1765	
38	0.316667	85.8338	-7.98633	-12.7362	72.6904	-27.5241	-44.9676	73.9929	-40.0145	-81.9192	88.7853	-48.2669	-101.685	95.525	30.9168	-91.628	89.2987	33.0514	-117.613	86.8615	30.4584	-145.899	119.635	10.7972	-101.149	108.724	-20.4802	-116.5	100.413	-48.1165	-85.9051	132.854	-11.0546	-98.5427	124.721	-39.8255	-98.9181	112.458	-46.7041	-63.956	152.021	-20.8198	-84.0208	136.218	-49.3257	-79.9709	124.707	-44.4798	-50.1612	147.97	16.619	-36.8931	149.878	16.0838	-6.02789	116.804	26.3107	-19.4888	
39	0.325	90.2677	-7.40689	-18.7736	84.4712	-26.3273	-54.4127	89.5038	-39.6449	-85.6977	102.761	-49.5767	-104.614	108.38	30.2548	-90.1615	105.867	35.1147	-118.937	105.727	34.9536	-148.715	129.658	9.43284	-106.519	123.812	-26.0064	-119.226	114.966	-49.916	-88.2021	149.043	-15.0425	-100.664	135.206	-42.4533	-99.2896	123.16	-47.3185	-64.3574	161.304	-22.1151	-85.678	144.81	-51.5912	-79.472	134.966	-44.0866	-48.3961	160.758	15.7222	-39.7521	160.861	13.4705	-4.68107	124.213	26.7111	-23.3515	
40	0.333333	105.543	-1.86766	-28.4249	99.4953	-22.8327	-58.8697	102.438	-37.3889	-91.5532	120.377	-44.6109	-111.37	130.229	34.6327	-96.9644	134.068	35.616	-125.573	136.345	33.9343	-157.54	154.559	10.3658	-108.229	143.937	-19.9665	-123.879	129.918	-47.2858	-95.0252	169.787	-11.905	-99.5108	153.035	-40.2578	-102.831	139.613	-47.6237	-70.4784	182.45	-24.7779	-86.9983	160.715	-51.2016	-81.3895	148.773	-44.6334	-52.2016	174.312	17.4031	-42.6678	174.281	16.67	-7.69177	142.396	26.3939	-27.1517	
41	0.341667	118.872	0.813924	-31.8013	109.141	-19.4027	-62.4872	117.057	-31.5596	-96.8883	133.649	-40.7841	-118.964	144.851	35.0002	-103.275	149.861	31.1556	-132.018	151.694	25.2659	-158.235	166.79	13.0048	-113.783	160.203	-19.9594	-126.226	144.107	-44.3956	-96.7748	182.186	-11.32	-104.747	166.316	-35.94	-107.692	150.891	-42.6459	-71.2129	195.962	-21.6737	-87.3925	168.997	-46.0904	-84.4355	159.593	-42.5377	-56.9147	188.315	19.64	-42.1329	184.651	15.8052	-12.5347	150.932	30.0044	-29.2135	
42	0.35	122.768	1.33351	-33.774	113.61	-18.0944	-63.6945	119.185	-30.2927	-100.244	136.505	-38.1914	-122.521	152.169	29.1262	-108.063	154.355	22.3201	-131.684	156.637	11.6825	-157.814	172.728	13.7889	-114.163	165.604	-15.7256	-128.648	147.647	-42.6999	-101.568	182.65	-6.52862	-104.727	169.456	-35.7257	-107.768	152.788	-40.6082	-77.7727	199.373	-20.7727	-89.2318	177.272	-46.7603	-87.9573	162.516	-40.6515	-57.0971	190.235	20.3507	-42.7759	188.216	16.5162	-12.9745	154.087	30.3849	-33.1741	
43	0.358333	118.544	1.0031	-33.1351	113.701	-16.9345	-64.0669	118.305	-28.9293	-97.6432	133.749	-36.67	-118.22	150.433	28.0978	-103.314	150.114	18.9255	-136.071	152.606	6.67197	-156.897	168.922	17.4801	-109.099	158.993	-13.0455	-129.805	145.497	-39.6991	-105.239	183.035	-3.40881	-104.657	166.915	-34.2773	-107.827	156.342	-41.2001	-76.3081	197.413	-19.8329	-91.8768	173.98	-43.4048	-88.6121	163.55	-39.5538	-58.2099	187.969	20.4625	-42.3074	186.297	17.7115	-12.0736	155.596	28.2986	-28.5121	
44	0.366667	122.969	0.936641	-35.0003	113.327	-16.4554	-63.1495	117.968	-29.02	-96.7299	133.755	-37.1917	-119.212	149.516	29.9717	-108.115	149.564	21.6029	-132.398	156.546	6.35166	-157.51	167.19	17.5109	-111.932	160.915	-14.6078	-128.581	144.572	-39.6136	-102.704	181.783	-6.41917	-106.895	165.636	-34.2098	-108.007	154.993	-39.8967	-76.0697	192.682	-17.2881	-90.3727	173.118	-44.3021	-86.7062	161.06	-36.112	-59.7838	189.708	22.1317	-45.8965	185.919	14.6783	-8.78888	153.267	29.3672	-27.866	
45	0.375	122.882	2.00551	-34.1732	112.915	-15.7571	-66.2819	115.339	-28.8533	-99.8637	133.167	-37.9245	-122.29	151.543	34.0941	-102.146	149.42	29.7269	-132.739	154.166	18.8593	-161.606	166.662	18.2392	-111.617	157.61	-11.429	-129.557	144.023	-39.5895	-101.381	180.865	-3.39222	-103.695	164.877	-33.7996	-107.731	151.44	-39.5592	-75.6503	194.684	-20.9729	-92.5919	172.556	-41.6304	-89.5488	161.208	-40.7282	-56.9486	187.575	20.5336	-44.3723	189.814	15.4562	-8.16276	152.592	32.0201	-30.9919	
46	0.383333	116.51	2.03792	-32.6491	109.019	-15.7638	-62.8583	110.984	-30.0845	-99.7747	126.397	-38.7389	-116.176	140.977	38.8416	-100.988	144.075	38.4046	-130.139	146.842	33.5281	-161.846	162.145	16.7572	-110.537	150.415	-14.4677	-127.861	138.566	-39.602	-99.6919	175.206	-3.73588	-104.477	158.735	-33.924	-107.474	146.437	-38.8477	-74.1277	190.541	-22.7265	-94.128	166.181	-46.3802	-85.1286	155.254	-37.07	-59.0668	188.904	18.1751	-48.6048	187.823	16.2302	-13.4831	153.833	30.3528	-29.8594	
47	0.391667	113.166	1.50191	-25.1291	97.4669	-16.2812	-58.9755	97.8357	-29.5844	-92.3571	117.536	-36.5629	-112.859	127.015	40.5515	-95.4601	129.356	44.0107	-126.351	124.164	45.8233	-153.004	151.971	15.4953	-110.874	137.657	-17.1454	-125.102	124.828	-39.9319	-95.2215	165.168	-4.43014	-103.654	149.841	-36.7006	-104.489	138.243	-39.4805	-72.7537	178.83	-20.6351	-92.9727	155.333	-41.9265	-87.2595	145.706	-37.6195	-58.0289	181.163	19.9584	-45.1108	178.885	16.7562	-9.49851	145.357	29.9355	-24.3206	
48	0.4	101.953	1.39797	-20.7366	85.958	-16.5197	-51.1463	86.5943	-28.7134	-87.7458	99.587	-37.2336	-107.611	114.246	43.2505	-95.6515	106.426	47.7299	-116.47	106.364	50.2564	-144.603	137.258	16.7039	-108.33	122.482	-12.9807	-122.497	113.1	-38.81	-92.5396	148.934	-3.26075	-103.503	136.748	-32.486	-105.032	129.16	-38.5151	-65.1093	167.27	-18.314	-91.0656	147.144	-45.7291	-85.4188	136.921	-37.8955	-56.1734	170.301	19.3605	-42.8721	173.251	17.5071	-11.6268	136.313	30.7749	-22.3898	
49	0.408333	97.5413	2.43127	-17.4847	79.8593	-13.8849	-49.6867	74.7554	-27.6895	-79.1432	89.745	-34.4364	-104.209	103.251	42.443	-87.2212	93.5163	49.207	-116.398	87.723	53.5253	-142.68	122.457	21.7612	-100.71	112.433	-14.079	-118.725	104.336	-36.6791	-90.5556	140.186	-4.47602	-101.818	122.899	-30.0915	-101.99	118.682	-37.6807	-63.0165	154.613	-14.3547	-89.4586	136.91	-43.4438	-83.8146	128.307	-38.8775	-54.606	161.618	21.1293	-43.7853	163.634	16.7624	-10.5088	130.521	32.0391	-18.7314	
